<svg width="256" height="401" viewBox="0 0 256 401" fill="none" xmlns="http://www.w3.org/2000/svg">
<path d="M75.2053 1.57745C91.2411 -3.7629 108.575 4.8955 113.92 20.9164C114.812 23.5883 115.705 27.1219 115.806 31.9813C115.872 35.2044 115.577 38.6607 115.193 42.1242C114.4 49.2712 112.605 61.5842 108.995 83.7385C112.957 81.974 117.309 80.1348 122.135 78.203L124.148 77.4104C145.376 69.1871 179.356 60.0191 197.541 55.7447C202.026 54.6905 208.421 53.2575 214.733 53.0846C221.499 52.8993 233.315 54.0131 243.188 63.5933C251.972 72.116 254.157 82.6769 254.966 87.9614C255.865 93.8359 255.99 100.364 256 106.214C256.038 130.988 253.543 177.049 247.393 225.079C241.255 273.011 231.449 322.059 221.753 375.838C218.757 392.458 202.842 403.504 186.206 400.51C169.571 397.517 158.514 381.616 161.511 364.995C171.499 309.595 180.8 263.2 186.676 217.318C191.519 179.497 193.916 143.291 194.585 119.547C178.182 123.893 158.805 129.589 146.505 134.341L144.901 134.972C123.403 143.578 114.976 149.122 105.48 155.447L104.818 155.876C102.064 157.612 99.1317 158.852 96.13 159.624C89.2943 198.848 81.7319 240.773 76.1804 268.786C71.4216 292.798 68.0323 307.106 65.1651 316.191C63.6944 320.85 62.066 325.108 59.9669 329.016C57.5926 333.436 55.1977 336.279 54.1186 337.573C43.2973 350.546 23.998 352.298 11.0126 341.487C-1.60333 330.983 -3.61719 312.486 6.20173 299.544C6.34954 299.133 6.54646 298.561 6.78705 297.799C8.55387 292.2 11.4029 280.777 16.1336 256.907C25.5259 209.515 40.9859 120.424 48.4173 74.9033C52.1506 52.0354 53.7433 40.8882 54.354 35.3855C54.4082 34.8968 54.4464 34.4838 54.4798 34.1413C52.8141 20.046 61.1981 6.24257 75.2053 1.57745ZM55.7862 40.0675L55.8485 40.2566C55.815 40.1563 55.7837 40.0548 55.7513 39.9543C55.7643 39.9958 55.7754 40.0339 55.7862 40.0675Z" fill="#2067F4"/>
</svg>
